<svg t="1567860403002" class="icon" viewBox="0 0 1024 1024" version="1.1" xmlns="http://www.w3.org/2000/svg" p-id="2177" width="200" height="200"><path d="M341.333333 0h128v85.333333h-128zM256 0H42.666667a42.666667 42.666667 0 0 0-42.666667 42.666667v213.333333h85.333333V85.333333h170.666667zM768 0h213.333333a42.666667 42.666667 0 0 1 42.666667 42.666667v213.333333h-85.333333V85.333333h-170.666667zM256 1024H42.666667a42.666667 42.666667 0 0 1-42.666667-42.666667V768h85.333333v170.666667h170.666667zM768 1024h213.333333a42.666667 42.666667 0 0 0 42.666667-42.666667V768h-85.333333v170.666667h-170.666667zM554.666667 0h128v85.333333h-128zM341.333333 938.666667h128v85.333333h-128zM554.666667 938.666667h128v85.333333h-128zM0 682.666667v-128h85.333333v128zM0 469.333333v-128h85.333333v128zM938.666667 682.666667v-128h85.333333v128zM938.666667 469.333333v-128h85.333333v128z" fill="#3A3A3A" p-id="2178"></path></svg>